<?xml version="1.0" standalone="no"?>
<!DOCTYPE svg PUBLIC "-//W3C//DTD SVG 20010904//EN"
 "http://www.w3.org/TR/2001/REC-SVG-20010904/DTD/svg10.dtd">
<svg version="1.0" xmlns="http://www.w3.org/2000/svg"
 width="260.000000pt" height="260.000000pt" viewBox="0 0 260.000000 260.000000"
 preserveAspectRatio="xMidYMid meet">
<metadata>
Created by potrace 1.14, written by Peter Selinger 2001-2017
</metadata>
<g transform="translate(0.000000,260.000000) scale(0.100000,-0.100000)"
fill="#000000" stroke="none">
<path d="M179 1801 c-1 -3 -3 -45 -4 -93 l-2 -88 468 0 469 0 0 -62 c0 -51 -5
-69 -24 -93 l-24 -30 -419 -2 c-230 -1 -430 -2 -444 -2 l-25 -1 0 -280 -1
-280 659 0 658 0 0 469 0 470 -87 -1 c-54 0 -91 -5 -95 -12 -6 -8 -8 -8 -8 1
0 9 -129 12 -560 12 -308 -1 -561 -4 -561 -8z m1126 -468 c1 -73 -1 -82 -10
-59 -7 15 -24 35 -39 45 l-27 18 26 17 c14 9 30 28 35 42 5 13 11 24 12 24 2
0 3 -39 3 -87z m-242 -102 c13 -7 30 -24 36 -38 16 -34 14 -133 -1 -134 -20 0
-659 -1 -700 0 l-37 1 1 93 0 92 338 0 c264 0 343 -3 363 -14z"/>
<path d="M1913 1573 l-236 -235 234 -234 234 -234 137 0 c76 0 138 2 138 4 0
2 -104 108 -230 235 l-231 230 231 231 c126 126 230 232 230 235 0 3 -61 5
-136 4 l-135 -1 -236 -235z"/>
</g>
</svg>
