<svg width="30" height="30" viewBox="0 0 30 30" fill="none" xmlns="http://www.w3.org/2000/svg">
<path d="M29.7806 7.19385C29.4705 6.88381 29.4067 6.69022 29.31 6.39726C29.1888 6.02985 29.0379 5.57258 28.4761 5.01076C27.9143 4.44895 27.4571 4.29804 27.0896 4.17687C26.7966 4.08027 26.603 4.01639 26.2929 3.70635C25.9829 3.39638 25.9192 3.20279 25.8226 2.9099C25.7014 2.5425 25.5506 2.08523 24.9888 1.52348C24.427 0.961667 23.9698 0.810915 23.6023 0.689745C23.3095 0.593138 23.1159 0.529333 22.806 0.219367C22.6097 0.0230835 22.3209 -0.0485103 22.0557 0.0332684C21.7904 0.115047 21.5922 0.336943 21.5406 0.609689L20.4584 6.32918L20.2523 6.12294C19.524 5.39472 18.5559 4.99369 17.526 4.99369C16.4962 4.99369 15.528 5.39472 14.7999 6.12294L14.2546 6.6682C14.2458 6.67667 14.2371 6.68535 14.2286 6.69419L9.69612 11.2267C9.68751 11.2349 9.67905 11.2434 9.67089 11.2519L6.12289 14.7999C5.39467 15.5281 4.99364 16.4963 4.99364 17.5261C4.99364 18.556 5.39467 19.5242 6.12289 20.2524L6.32913 20.4586L0.609658 21.5407C0.336913 21.5923 0.115093 21.7905 0.0333145 22.0558C-0.0485388 22.321 0.0230547 22.6098 0.219338 22.8061C0.529377 23.1161 0.593182 23.3096 0.689789 23.6025C0.810958 23.9699 0.961709 24.4271 1.52345 24.9889C2.08526 25.5506 2.54246 25.7015 2.90986 25.8226C3.20283 25.9192 3.39634 25.9831 3.70638 26.2931C4.01649 26.6031 4.0803 26.7967 4.1769 27.0897C4.29815 27.4571 4.44898 27.9143 5.01079 28.4762C5.57268 29.0381 6.02987 29.1889 6.39735 29.3101C6.69032 29.4067 6.8839 29.4705 7.19394 29.7807C7.33653 29.9232 7.52787 30 7.72356 30C7.79725 30 7.87169 29.9891 7.94418 29.9667C8.20943 29.8848 8.40766 29.663 8.45926 29.3903L9.5414 23.6708L9.74757 23.877C10.4759 24.6052 11.4439 25.0063 12.4738 25.0063C13.5037 25.0063 14.4718 24.6052 15.2 23.877L15.7453 23.3317C15.7541 23.3233 15.7628 23.3146 15.7712 23.3058L20.3038 18.7733C20.3124 18.765 20.3208 18.7566 20.329 18.748L23.877 15.2001C24.6053 14.4719 25.0063 13.5036 25.0063 12.4738C25.0063 11.4439 24.6053 10.4758 23.877 9.74756L23.6708 9.54139L29.3903 8.45932C29.6631 8.40772 29.8849 8.20949 29.9667 7.94424C30.0485 7.67891 29.9769 7.39013 29.7806 7.19385ZM6.86646 27.8877C6.57349 27.7911 6.3799 27.7272 6.06987 27.4171C5.75975 27.107 5.69595 26.9135 5.59934 26.6205C5.47809 26.2531 5.32727 25.7958 4.76545 25.234C4.20364 24.6722 3.74644 24.5214 3.37897 24.4002C3.086 24.3036 2.89249 24.2397 2.58252 23.9298C2.27256 23.6198 2.20876 23.4263 2.11215 23.1334C2.07822 23.0305 2.0419 22.9204 1.99495 22.8029L7.611 21.7404L8.25946 22.389L7.19694 28.005C7.07959 27.9579 6.9695 27.9216 6.86646 27.8877ZM9.60663 21.6178C9.60102 21.612 9.59525 21.6063 9.58941 21.6006L8.39838 20.4095C8.39344 20.4044 8.38834 20.3994 8.38325 20.3944L7.18219 19.1932C6.7369 18.7479 6.49156 18.1559 6.49156 17.5261C6.49156 16.8963 6.73682 16.3042 7.18219 15.8589L9.97898 13.0621L13.8154 21.4911L14.3323 22.6267L14.141 22.8179C13.6957 23.2631 13.1036 23.5084 12.4739 23.5084C12.293 23.5084 12.1153 23.4875 11.9432 23.4481C11.5162 23.3503 11.1241 23.1352 10.8067 22.8179L9.60663 21.6178ZM20.4106 8.39934L21.6016 9.59045C21.6066 9.59554 21.6117 9.60055 21.6168 9.60557L22.3873 10.3761L22.8178 10.8066C23.2631 11.2519 23.5084 11.844 23.5084 12.4738C23.5084 13.1036 23.2632 13.6956 22.8178 14.1409L20.021 16.9377L19.415 15.6063L15.6678 7.37321L15.8591 7.18202C16.3044 6.73673 16.8964 6.49147 17.5262 6.49147C18.1559 6.49147 18.748 6.73673 19.1934 7.18202L20.3934 8.38204C20.399 8.38788 20.4048 8.39364 20.4106 8.39934ZM18.8903 18.0685L15.463 21.4958L14.9436 20.3545L11.1097 11.9313L14.537 8.50411L18.3301 16.8378L18.8903 18.0685ZM22.3889 8.25952L22.1035 7.97404L21.7405 7.61098L22.803 1.99491C22.9204 2.04186 23.0304 2.07819 23.1334 2.11211C23.4263 2.20872 23.6198 2.27252 23.9298 2.58249C24.2398 2.89253 24.3036 3.08604 24.4002 3.37893C24.5214 3.74634 24.6722 4.20353 25.2339 4.76535C25.7958 5.32717 26.253 5.47799 26.6205 5.59916C26.9135 5.69577 27.1071 5.75965 27.4171 6.06977C27.4295 6.08212 27.4408 6.09411 27.4525 6.10609C27.7317 6.39516 27.7949 6.58508 27.8877 6.86636C27.9217 6.96933 27.958 7.07942 28.005 7.19684L22.3889 8.25952Z" fill="black"/>
</svg>
